# xmcd
#
# Track frame offsets:
#	150
#	9997
#	20150
#	30580
#	44752
#	62265
#	68105
#	84400
#	95702
#	110737
#	124647
#	135110
#	144452
#	155450
#	160865
#	172015
#	180882
#	195237
#	211107
#	217125
#
# Disc length: 3092 seconds
# Revision: 0
# Processed by: cddbd v1.5.2PL0 Copyright (c) Steve Scherf et al.
# Submitted via: dBpowerAMP V12.0
#
DISCID=0a0c1214
DTITLE=Various Artist - Christmas in the Country
DYEAR=2006
DGENRE=Holiday
TTITLE0=Willie Nelson - Jingle Bells
TTITLE1=Tammy Wynette - Joy to the World
TTITLE2=Jim Reeves - O Little Town of Bethlehem
TTITLE3=Marty Robbins - Hark! the Herald Angels Sing
TTITLE4=Burl Ives with Perry Faith and His Orchestra and Chorus - The Twelve Days of Christmas
TTITLE5=Lorne Greene - We Wish You a Merry Christmas
TTITLE6=Slim Whitman - We Three Kings
TTITLE7=Brothers Four, The - What Child Is This
TTITLE8=Clancy Brothers, The - When Joesph Was an Old Man
TTITLE9=Jody Miller - Cherry Tree Carol
TTITLE10=Tanya Tucker - Away in a Manger
TTITLE11=Eddy Arnold - Up on the Housetop
TTITLE12=Dottie West - The Lord's Prayer
TTITLE13=Chet Atkins - Deck the Halls
TTITLE14=Connie Smith - Go Tell It on the Mountain
TTITLE15=Charlie Rich - O Holy Night
TTITLE16=Don Williams - O Come, All Ye Faithful
TTITLE17=Lorrie Morgan - Toyland
TTITLE18=Anita Kerr Singers, The - God Rest Ye Merry Gentlemen
TTITLE19=John Anderson - Silent Night
EXTD=
EXTT0=
EXTT1=
EXTT2=
EXTT3=
EXTT4=
EXTT5=
EXTT6=
EXTT7=
EXTT8=
EXTT9=
EXTT10=
EXTT11=
EXTT12=
EXTT13=
EXTT14=
EXTT15=
EXTT16=
EXTT17=
EXTT18=
EXTT19=
PLAYORDER=
